<svg width="600" height="600" viewBox="0 0 600 600" fill="none" xmlns="http://www.w3.org/2000/svg">
<rect width="600" height="600" fill="#f4f7f6"/>
<path d="M 0 0 Q 300 150 600 0 V 600 Q 300 450 0 600 Z" fill="#2d6cdf" fill-opacity="0.9"/>
<rect x="236" y="117" width="224" height="421" rx="20" fill="#31394c" fill-opacity="0.8"/>
<rect x="251" y="132" width="194" height="392" rx="14" fill="#6773a4" fill-opacity="0.3"/>
<rect x="339" y="125" width="20" height="2" rx="1" fill="#4c5573" fill-opacity="0.8"/>
<circle cx="349" cy="130" r="1.5" fill="#4c5573" fill-opacity="0.8"/>
<rect x="221" y="196" width="228" height="305" rx="15" fill="#e2ac6a" fill-opacity="0.8"/>
<circle cx="335" cy="245" r="40" fill="#ea8d53"/>
<path d="M 335 215 C 325 215 315 220 315 230 S 325 245 335 245 S 355 240 355 230 S 345 215 335 215" fill="#3f4f89"/>
<rect x="253" y="306" width="163" height="36" rx="5" fill="#f4f7f6"/>
<text x="263" y="328" font-family="Arial" font-size="14" fill="#31394c" fill-opacity="0.8">Username / Email</text>
<rect x="249" y="356" width="170" height="36" rx="5" fill="#f4f7f6"/>
<text x="259" y="378" font-family="Arial" font-size="14" fill="#31394c" fill-opacity="0.8">Password *****</text>
<rect x="277" y="420" width="115" height="40" rx="5" fill="#ea8d53"/>
<text x="315" y="445" font-family="Arial" font-size="16" fill="#f4f7f6" text-anchor="middle" font-weight="bold">Log In</text>
<rect x="424" y="213" width="75" height="48" rx="4" fill="#f4f7f6" fill-opacity="0.7"/>
<rect x="430" y="219" width="63" height="4" rx="2" fill="#31394c" fill-opacity="0.5"/>
<rect x="430" y="227" width="18" height="4" rx="2" fill="#e2ac6a"/>
<rect x="434" y="331" width="107" height="48" rx="4" fill="#ea8d53" fill-opacity="0.8"/>
<rect x="440" y="337" width="37" height="36" rx="3" fill="#f4f7f6"/>
<rect x="440" y="341" width="37" height="28" rx="2" fill="#e2ac6a" fill-opacity="0.4"/>
<rect x="483" y="337" width="52" height="4" rx="2" fill="#31394c" fill-opacity="0.4"/>
<circle cx="499" cy="207" r="41.5" stroke="#ea8d53" stroke-width="3" fill="#f4f7f6" fill-opacity="0.7"/>
<path d="M 499 180 V 195 M 499 220 V 235 M 485 190 L 492 197 M 506 211 L 513 218 M 475 207 H 490 M 508 207 H 523" stroke="#ea8d53" stroke-width="3"/>
<path d="M 499 195 A 12 12 0 0 1 499 220" fill="none" stroke="#ea8d53" stroke-width="3"/>
<rect x="135" y="106" width="31" height="31" rx="4" fill="#ea8d53"/>
<rect x="156" y="121" width="31" height="31" rx="4" fill="#9079ea"/>
<rect x="52" y="174" width="94" height="63" fill="none" stroke="#31394c" stroke-width="2"/>
<path d="M 52 174 H 146 M 52 184 H 146 M 62 174 V 237 M 72 174 V 237 M 82 174 V 237 M 92 174 V 237 M 102 174 V 237 M 112 174 V 237 M 122 174 V 237 M 132 174 V 237" stroke="#31394c" stroke-width="2"/>
<circle cx="99" cy="254" r="7" fill="#31394c"/>
<circle cx="99" cy="254" r="3" fill="#f4f7f6"/>
<rect x="110" y="247" width="28" height="14" fill="#31394c"/>
<rect x="290" y="107" width="22" height="22" fill="#31394c" fill-opacity="0.3"/>
<rect x="319" y="87" width="26" height="26" fill="#31394c" fill-opacity="0.3"/>
<rect x="353" y="102" width="19" height="19" fill="#31394c" fill-opacity="0.3"/>
<path d="M 312 118 H 325 V 104 H 338 V 118 H 351 V 110 H 364" fill="none" stroke="#31394c" stroke-width="2" stroke-opacity="0.3"/>
<path d="M 290 129 H 325" fill="none" stroke="#31394c" stroke-width="2" stroke-opacity="0.3"/>
<circle cx="513" cy="460" r="16.5" stroke="#f4f7f6" stroke-width="3" fill="#ea8d53"/>
<path d="M 513 448 V 460 C 513 463 516 466 519 466 C 522 466 525 463 525 460" stroke="#f4f7f6" stroke-width="3" fill="none"/>
<circle cx="513" cy="460" r="3" fill="#f4f7f6"/>
<path d="M 129 281 C 129 265 142 252 158 252 V 466 C 142 466 129 453 129 437 Z" fill="#9079ea"/>
<path d="M 158 252 C 174 252 187 265 187 281 V 437 C 187 453 174 466 158 466 Z" fill="#9079ea"/>
<path d="M 187 281 C 187 265 200 252 216 252 V 466 C 200 466 187 453 187 437 Z" fill="#9079ea"/>
<circle cx="168" cy="217" r="13" fill="#ea8d53"/>
<circle cx="168" cy="225" r="13" fill="#3f4f89"/>
<path d="M 168 238 C 176 238 181 232 181 225 H 155 C 155 232 160 238 168 238 Z" fill="#3f4f89"/>
<path d="M 55 264 H 105 L 115 284 L 105 304 H 55 Z" fill="#9079ea"/>
<path d="M 55 304 H 105 L 115 324 L 105 344 H 55 Z" fill="#9079ea"/>
<rect x="424" y="466" width="138" height="74" rx="10" fill="#e2ac6a" fill-opacity="0.8"/>
<rect x="424" y="466" width="138" height="64" rx="10" fill="#e2ac6a" fill-opacity="0.9"/>
<rect x="430" y="472" width="37" height="28" rx="2" fill="#ea8d53" fill-opacity="0.6"/>
<rect x="430" y="504" width="37" height="4" rx="2" fill="#31394c" fill-opacity="0.3"/>
<rect x="473" y="472" width="83" height="4" rx="2" fill="#31394c" fill-opacity="0.3"/>
<rect x="473" y="480" width="18" height="4" rx="2" fill="#ea8d53"/>
<circle cx="430" cy="514" r="7.5" fill="#f4f7f6"/>
<circle cx="430" cy="514" r="3.5" fill="#ea8d53"/>
<circle cx="456" cy="514" r="7.5" fill="#f4f7f6"/>
<circle cx="456" cy="514" r="3.5" fill="#ea8d53"/>
<circle cx="482" cy="514" r="7.5" fill="#f4f7f6"/>
<circle cx="482" cy="514" r="3.5" fill="#ea8d53"/>
<path d="M 230 491 H 303 L 313 506 L 303 521 H 230 V 506 Z" fill="#f4f7f6" stroke="#31394c" stroke-width="2"/>
<rect x="238" y="497" width="22" height="18" fill="#31394c"/>
<circle cx="249" cy="506" r="3" fill="#e2ac6a"/>
<path d="M 249 500 V 512 M 243 506 H 255" stroke="#e2ac6a" stroke-width="1.5"/>
</svg>
