<svg version="1.1" id="Layer_1" xmlns="http://www.w3.org/2000/svg" xmlns:xlink="http://www.w3.org/1999/xlink" x="0px" y="0px"
	 width="100%" viewBox="0 0 1024 672" enable-background="new 0 0 1024 672" xml:space="preserve">
<path fill="#000000" opacity="1.000000" stroke="none" 
	d="
M512.000000,411.158203 
	C498.840729,411.156036 486.178772,410.995087 473.523163,411.209839 
	C465.604126,411.344208 457.912506,410.109192 450.327423,408.189514 
	C436.473511,404.683228 428.513153,395.543304 425.661194,381.670380 
	C424.144592,374.293182 423.621277,366.869263 423.664459,359.343628 
	C423.781158,339.022797 423.803314,318.700287 423.664124,298.379791 
	C423.615753,291.317993 424.670471,284.417419 426.142365,277.607574 
	C429.668152,261.294952 441.062012,252.410675 460.206665,250.832642 
	C489.471527,248.420425 518.798096,250.325577 548.089966,249.724289 
	C555.946899,249.562988 563.709412,250.400909 571.446655,251.635391 
	C588.208374,254.309723 597.456543,263.956024 600.575439,280.623383 
	C602.033081,288.413452 602.308350,296.134552 602.310974,303.950378 
	C602.317566,323.272430 602.220032,342.595093 602.355530,361.916168 
	C602.406128,369.128479 601.558044,376.197876 600.106812,383.215149 
	C597.197998,397.280853 586.804565,406.457581 571.313232,409.259857 
	C563.404724,410.690399 555.496155,411.274506 547.479370,411.189728 
	C535.820740,411.066406 524.159912,411.158203 512.000000,411.158203 
M431.330078,330.499939 
	C431.489258,344.881989 430.684570,359.303955 432.745087,373.857117 
	C435.138855,372.623230 436.317505,370.766754 437.744873,369.173004 
	C445.079102,360.983917 452.289856,352.679993 459.778015,344.634247 
	C466.411163,337.507202 474.142059,337.495880 481.197083,344.280121 
	C484.198914,347.166687 487.089508,350.168640 490.043579,353.105164 
	C496.575409,359.598053 495.120575,359.951477 502.122192,352.963226 
	C512.263306,342.841492 522.283020,332.596832 532.502136,322.554901 
	C539.361816,315.814178 547.004944,316.030365 553.458191,322.989410 
	C562.632690,332.883087 571.693237,342.882416 580.819885,352.820557 
	C584.830200,357.187439 588.883606,361.514832 593.072937,366.027618 
	C594.463379,363.788116 594.609924,361.777344 594.568604,359.843689 
	C594.020386,334.225952 596.333008,308.556793 592.844116,282.985077 
	C591.117371,270.329254 585.137756,262.919678 572.774292,259.932098 
	C569.077271,259.038727 565.238464,258.598358 561.437012,258.292450 
	C536.654053,256.297821 511.820740,257.803101 487.014893,257.317535 
	C476.833893,257.118256 466.733734,257.855377 456.651611,259.250183 
	C442.754211,261.172821 434.766815,269.737701 433.173462,283.614960 
	C431.420074,298.885956 431.269775,314.178589 431.330078,330.499939 
M495.060699,368.252808 
	C488.244293,363.389099 483.025360,356.843781 477.034729,351.111115 
	C471.619690,345.929321 469.169312,345.874390 464.202911,351.383636 
	C455.728851,360.783905 447.371185,370.289001 438.951569,379.738434 
	C434.342133,384.911652 434.273224,386.127411 438.262085,391.699554 
	C439.542603,393.488312 441.132050,394.903503 442.924164,396.162506 
	C450.364166,401.389557 458.969330,402.617584 467.650574,402.782318 
	C498.132996,403.360840 528.621399,403.284607 559.106628,402.821320 
	C563.946289,402.747772 568.747070,401.996216 573.394226,400.677887 
	C582.635376,398.056244 589.326416,392.747864 591.942444,382.979706 
	C592.857178,379.564117 592.539490,377.091522 590.043701,374.400604 
	C576.677551,359.989685 563.490295,345.412933 550.232849,330.901031 
	C544.213928,324.312592 541.747498,324.209991 535.550537,330.464264 
	C524.062012,342.059113 512.620422,353.700531 501.165009,365.328247 
	C499.647217,366.868866 498.276337,368.643311 495.060699,368.252808 
z"/>
<path fill="#000000" opacity="1.000000" stroke="none" 
	d="
M494.479736,312.511902 
	C487.365967,318.183075 480.027802,318.673004 473.604614,314.148102 
	C467.688049,309.980072 465.045227,301.883240 467.396088,295.126709 
	C469.845581,288.086731 476.991425,283.139740 484.358368,283.764862 
	C491.017792,284.329926 495.895203,287.753662 498.453979,294.025452 
	C501.246185,300.869293 500.070831,307.008759 494.479736,312.511902 
M488.014832,307.790833 
	C492.066650,304.984711 492.613037,301.028015 491.071625,296.828796 
	C489.725677,293.162140 486.490997,291.623108 482.740173,291.821991 
	C478.496399,292.047028 475.692535,294.421997 474.629883,298.608734 
	C472.855988,305.597809 478.963135,310.187653 488.014832,307.790833 
z"/>
</svg>